<svg width="17" height="16" viewBox="0 0 17 16" fill="none" xmlns="http://www.w3.org/2000/svg">
<path id="explore" d="M5 11.5L10.5 10L12 4.5L6.5 6L5 11.5ZM8.5 9C8.22222 9.01389 7.98611 8.9216 7.79167 8.72313C7.59722 8.52465 7.5 8.28361 7.5 8C7.5 7.72222 7.59722 7.48611 7.79167 7.29167C7.98611 7.09722 8.22222 7 8.5 7C8.77778 7 9.01389 7.09722 9.20833 7.29167C9.40278 7.48611 9.5 7.72222 9.5 8C9.5 8.27778 9.40278 8.51389 9.20833 8.70833C9.01389 8.90278 8.77778 9 8.5 9ZM8.50583 16C7.40472 16 6.36806 15.7917 5.39583 15.375C4.42361 14.9583 3.57292 14.3854 2.84375 13.6562C2.11458 12.9271 1.54167 12.0767 1.125 11.105C0.708333 10.1333 0.5 9.09514 0.5 7.99042C0.5 6.88569 0.708333 5.85069 1.125 4.88542C1.54167 3.92014 2.11458 3.07292 2.84375 2.34375C3.57292 1.61458 4.42333 1.04167 5.395 0.625C6.36667 0.208333 7.40486 0 8.50958 0C9.61431 0 10.6493 0.208333 11.6146 0.625C12.5799 1.04167 13.4271 1.61458 14.1562 2.34375C14.8854 3.07292 15.4583 3.92167 15.875 4.89C16.2917 5.85847 16.5 6.89319 16.5 7.99417C16.5 9.09528 16.2917 10.1319 15.875 11.1042C15.4583 12.0764 14.8854 12.9271 14.1562 13.6562C13.4271 14.3854 12.5783 14.9583 11.61 15.375C10.6415 15.7917 9.60681 16 8.50583 16ZM8.50479 14.5C10.3072 14.5 11.8403 13.8665 13.1042 12.5994C14.3681 11.3323 15 9.79757 15 7.99521C15 6.19285 14.3665 4.65972 13.0994 3.39583C11.8323 2.13194 10.2976 1.5 8.49521 1.5C6.69285 1.5 5.15972 2.13354 3.89583 3.40062C2.63194 4.66771 2 6.20243 2 8.00479C2 9.80715 2.63354 11.3403 3.90063 12.6042C5.16771 13.8681 6.70243 14.5 8.50479 14.5Z" fill="#79D7BE"/>
</svg>
