<svg width="21" height="20" viewBox="0 0 21 20" fill="none" xmlns="http://www.w3.org/2000/svg">
<g id="book">
<mask id="mask0_443_3515" style="mask-type:alpha" maskUnits="userSpaceOnUse" x="0" y="0" width="21" height="20">
<rect id="Bounding box" x="0.5" width="20" height="20" fill="#79D7BE"/>
</mask>
<g mask="url(#mask0_443_3515)">
<path id="book_2" d="M5.99417 18C5.58139 18 5.22917 17.8531 4.9375 17.5594C4.64583 17.2656 4.5 16.9125 4.5 16.5V3.5C4.5 3.0875 4.64694 2.73438 4.94083 2.44063C5.23472 2.14688 5.58806 2 6.00083 2H15.0058C15.4186 2 15.7708 2.14688 16.0625 2.44063C16.3542 2.73438 16.5 3.0875 16.5 3.5V16.5C16.5 16.9125 16.3531 17.2656 16.0592 17.5594C15.7653 17.8531 15.4119 18 14.9992 18H5.99417ZM6 16.5H15V3.5H13.5V10L11.5 9L9.5 10V3.5H6V16.5Z" fill="#79D7BE"/>
</g>
</g>
</svg>
