<svg width="22" height="22" viewBox="0 0 22 22" fill="none" xmlns="http://www.w3.org/2000/svg">
<g id="fluent:scan-dash-28-filled">
<path id="Vector" d="M5.49979 2.35693C4.66625 2.35693 3.86686 2.68805 3.27746 3.27746C2.68805 3.86686 2.35693 4.66625 2.35693 5.49979V8.12486C2.35693 8.33325 2.43971 8.5331 2.58706 8.68045C2.73441 8.8278 2.93426 8.91058 3.14265 8.91058C3.35103 8.91058 3.55088 8.8278 3.69823 8.68045C3.84558 8.5331 3.92836 8.33325 3.92836 8.12486V5.49979C3.92836 5.08302 4.09392 4.68332 4.38862 4.38862C4.68332 4.09392 5.08302 3.92836 5.49979 3.92836H8.12643C8.33482 3.92836 8.53467 3.84558 8.68202 3.69823C8.82937 3.55088 8.91215 3.35103 8.91215 3.14265C8.91215 2.93426 8.82937 2.73441 8.68202 2.58706C8.53467 2.43971 8.33482 2.35693 8.12643 2.35693H5.49979ZM13.8747 2.35693C13.6663 2.35693 13.4665 2.43971 13.3191 2.58706C13.1718 2.73441 13.089 2.93426 13.089 3.14265C13.089 3.35103 13.1718 3.55088 13.3191 3.69823C13.4665 3.84558 13.6663 3.92836 13.8747 3.92836H16.4998C16.9166 3.92836 17.3163 4.09392 17.611 4.38862C17.9057 4.68332 18.0712 5.08302 18.0712 5.49979V8.12486C18.0712 8.33325 18.154 8.5331 18.3013 8.68045C18.4487 8.8278 18.6486 8.91058 18.8569 8.91058C19.0653 8.91058 19.2652 8.8278 19.4125 8.68045C19.5599 8.5331 19.6426 8.33325 19.6426 8.12486V5.49979C19.6426 4.66625 19.3115 3.86686 18.7221 3.27746C18.1327 2.68805 17.3333 2.35693 16.4998 2.35693H13.8747ZM3.92836 13.8747C3.92836 13.6663 3.84558 13.4665 3.69823 13.3191C3.55088 13.1718 3.35103 13.089 3.14265 13.089C2.93426 13.089 2.73441 13.1718 2.58706 13.3191C2.43971 13.4665 2.35693 13.6663 2.35693 13.8747V16.4998C2.35693 17.3333 2.68805 18.1327 3.27746 18.7221C3.86686 19.3115 4.66625 19.6426 5.49979 19.6426H8.12486C8.33325 19.6426 8.5331 19.5599 8.68045 19.4125C8.8278 19.2652 8.91058 19.0653 8.91058 18.8569C8.91058 18.6486 8.8278 18.4487 8.68045 18.3013C8.5331 18.154 8.33325 18.0712 8.12486 18.0712H5.49979C5.08302 18.0712 4.68332 17.9057 4.38862 17.611C4.09392 17.3163 3.92836 16.9166 3.92836 16.4998V13.8747ZM19.6426 13.8747C19.6426 13.6663 19.5599 13.4665 19.4125 13.3191C19.2652 13.1718 19.0653 13.089 18.8569 13.089C18.6486 13.089 18.4487 13.1718 18.3013 13.3191C18.154 13.4665 18.0712 13.6663 18.0712 13.8747V16.4998C18.0712 16.9166 17.9057 17.3163 17.611 17.611C17.3163 17.9057 16.9166 18.0712 16.4998 18.0712H13.8747C13.6663 18.0712 13.4665 18.154 13.3191 18.3013C13.1718 18.4487 13.089 18.6486 13.089 18.8569C13.089 19.0653 13.1718 19.2652 13.3191 19.4125C13.4665 19.5599 13.6663 19.6426 13.8747 19.6426H16.4998C17.3333 19.6426 18.1327 19.3115 18.7221 18.7221C19.3115 18.1327 19.6426 17.3333 19.6426 16.4998V13.8747ZM6.87479 10.2141C6.66641 10.2141 6.46656 10.2969 6.31921 10.4442C6.17186 10.5916 6.08908 10.7914 6.08908 10.9998C6.08908 11.2082 6.17186 11.408 6.31921 11.5554C6.46656 11.7027 6.66641 11.7855 6.87479 11.7855H15.1248C15.3332 11.7855 15.533 11.7027 15.6804 11.5554C15.8277 11.408 15.9105 11.2082 15.9105 10.9998C15.9105 10.7914 15.8277 10.5916 15.6804 10.4442C15.533 10.2969 15.3332 10.2141 15.1248 10.2141H6.87479Z" fill="#79D7BE"/>
</g>
</svg>
