<svg width="22" height="22" viewBox="0 0 22 22" fill="none" xmlns="http://www.w3.org/2000/svg">
<g id="fluent:scan-dash-28-filled">
<path id="Vector" d="M5.49997 2.35718C4.66644 2.35718 3.86704 2.6883 3.27764 3.2777C2.68824 3.8671 2.35712 4.6665 2.35712 5.50004V8.12511C2.35712 8.33349 2.4399 8.53334 2.58725 8.68069C2.7346 8.82804 2.93445 8.91082 3.14283 8.91082C3.35122 8.91082 3.55106 8.82804 3.69841 8.68069C3.84576 8.53334 3.92855 8.33349 3.92855 8.12511V5.50004C3.92855 5.08327 4.09411 4.68357 4.38881 4.38887C4.68351 4.09417 5.08321 3.92861 5.49997 3.92861H8.12662C8.335 3.92861 8.53485 3.84583 8.6822 3.69848C8.82955 3.55113 8.91233 3.35128 8.91233 3.14289C8.91233 2.93451 8.82955 2.73466 8.6822 2.58731C8.53485 2.43996 8.335 2.35718 8.12662 2.35718H5.49997ZM13.8749 2.35718C13.6665 2.35718 13.4667 2.43996 13.3193 2.58731C13.172 2.73466 13.0892 2.93451 13.0892 3.14289C13.0892 3.35128 13.172 3.55113 13.3193 3.69848C13.4667 3.84583 13.6665 3.92861 13.8749 3.92861H16.5C16.9167 3.92861 17.3164 4.09417 17.6111 4.38887C17.9058 4.68357 18.0714 5.08327 18.0714 5.50004V8.12511C18.0714 8.33349 18.1542 8.53334 18.3015 8.68069C18.4489 8.82804 18.6487 8.91082 18.8571 8.91082C19.0655 8.91082 19.2654 8.82804 19.4127 8.68069C19.5601 8.53334 19.6428 8.33349 19.6428 8.12511V5.50004C19.6428 4.6665 19.3117 3.8671 18.7223 3.2777C18.1329 2.6883 17.3335 2.35718 16.5 2.35718H13.8749ZM3.92855 13.875C3.92855 13.6666 3.84576 13.4667 3.69841 13.3194C3.55106 13.172 3.35122 13.0892 3.14283 13.0892C2.93445 13.0892 2.7346 13.172 2.58725 13.3194C2.4399 13.4667 2.35712 13.6666 2.35712 13.875V16.5C2.35712 17.3336 2.68824 18.133 3.27764 18.7224C3.86704 19.3118 4.66644 19.6429 5.49997 19.6429H8.12505C8.33343 19.6429 8.53328 19.5601 8.68063 19.4128C8.82798 19.2654 8.91076 19.0656 8.91076 18.8572C8.91076 18.6488 8.82798 18.4489 8.68063 18.3016C8.53328 18.1542 8.33343 18.0715 8.12505 18.0715H5.49997C5.08321 18.0715 4.68351 17.9059 4.38881 17.6112C4.09411 17.3165 3.92855 16.9168 3.92855 16.5V13.875ZM19.6428 13.875C19.6428 13.6666 19.5601 13.4667 19.4127 13.3194C19.2654 13.172 19.0655 13.0892 18.8571 13.0892C18.6487 13.0892 18.4489 13.172 18.3015 13.3194C18.1542 13.4667 18.0714 13.6666 18.0714 13.875V16.5C18.0714 16.9168 17.9058 17.3165 17.6111 17.6112C17.3164 17.9059 16.9167 18.0715 16.5 18.0715H13.8749C13.6665 18.0715 13.4667 18.1542 13.3193 18.3016C13.172 18.4489 13.0892 18.6488 13.0892 18.8572C13.0892 19.0656 13.172 19.2654 13.3193 19.4128C13.4667 19.5601 13.6665 19.6429 13.8749 19.6429H16.5C17.3335 19.6429 18.1329 19.3118 18.7223 18.7224C19.3117 18.133 19.6428 17.3336 19.6428 16.5V13.875ZM6.87497 10.2143C6.66659 10.2143 6.46674 10.2971 6.31939 10.4445C6.17204 10.5918 6.08926 10.7917 6.08926 11C6.08926 11.2084 6.17204 11.4083 6.31939 11.5556C6.46674 11.703 6.66659 11.7857 6.87497 11.7857H15.125C15.3334 11.7857 15.5332 11.703 15.6806 11.5556C15.8279 11.4083 15.9107 11.2084 15.9107 11C15.9107 10.7917 15.8279 10.5918 15.6806 10.4445C15.5332 10.2971 15.3334 10.2143 15.125 10.2143H6.87497Z" fill="black"/>
</g>
</svg>
