<svg width="21" height="20" viewBox="0 0 21 20" fill="none" xmlns="http://www.w3.org/2000/svg">
<g id="person_2">
<mask id="mask0_191_1624" style="mask-type:alpha" maskUnits="userSpaceOnUse" x="0" y="0" width="21" height="20">
<rect id="Bounding box" x="0.5" width="20" height="20" fill="#D9D9D9"/>
</mask>
<g mask="url(#mask0_191_1624)">
<path id="person_2_2" d="M8.77938 10C8.31535 10 7.9375 9.82292 7.64583 9.46875C7.35417 9.11458 7.23611 8.70833 7.29167 8.25L7.58333 6.47917C7.68056 5.75694 8.00563 5.16319 8.55854 4.69792C9.11146 4.23264 9.75861 4 10.5 4C11.2414 4 11.8885 4.22917 12.4415 4.6875C12.9944 5.14583 13.3194 5.73611 13.4167 6.45833L13.7083 8.25C13.7639 8.70833 13.6458 9.11458 13.3542 9.46875C13.0625 9.82292 12.6847 10 12.2206 10H8.77938ZM8.77083 8.5H12.2292L11.9375 6.70833C11.8819 6.34722 11.7197 6.05556 11.4506 5.83333C11.1816 5.61111 10.8656 5.5 10.5027 5.5C10.1398 5.5 9.82292 5.61111 9.55208 5.83333C9.28125 6.05556 9.11806 6.34722 9.0625 6.70833L8.77083 8.5ZM4.5 16V14C4.5 13.6806 4.58681 13.3785 4.76042 13.0938C4.93403 12.809 5.17361 12.5694 5.47917 12.375C6.24306 11.9306 7.05063 11.5903 7.90188 11.3542C8.75313 11.1181 9.61771 11 10.4956 11C11.3735 11 12.2396 11.1181 13.0938 11.3542C13.9479 11.5903 14.7569 11.9306 15.5208 12.375C15.8264 12.5556 16.066 12.7917 16.2396 13.0833C16.4132 13.375 16.5 13.6806 16.5 14V16H4.5ZM6 14.5H15V14C15 13.9281 14.979 13.8627 14.9369 13.804C14.8949 13.7451 14.8396 13.6993 14.7708 13.6667C14.1319 13.2778 13.4514 12.9861 12.7292 12.7917C12.0069 12.5972 11.2639 12.5 10.5 12.5C9.73611 12.5 8.99306 12.5972 8.27083 12.7917C7.54861 12.9861 6.86806 13.2778 6.22917 13.6667C6.15972 13.7222 6.10417 13.7758 6.0625 13.8275C6.02083 13.8793 6 13.9368 6 14V14.5Z" fill="#1C1B1F"/>
</g>
</g>
</svg>
