<svg width="32" height="33" viewBox="0 0 32 33" fill="none" xmlns="http://www.w3.org/2000/svg">
<g id="Component 1">
<path id="Vector" d="M29.6129 26.4059L27.7497 26.8613L27.3641 27.154L10.9268 24.9437H1.20312L4.67513 16.3499L10.3197 16.3837L11.6866 18.8642L16.1958 23.5451L15.6116 20.6305L19.6361 21.346L27.3641 27.154L21.2561 21.346L20.2532 18.5716L16.7252 9.97903C16.7252 9.97903 14.0144 5.17929 13.9584 5.1255C14.0348 5.13551 20.2532 5.10298 20.2532 5.10298L21.3885 9.71884L23.8921 18.5716L24.5754 20.9671L27 23.7728L25.0273 20.7607L26.3165 20.219L26.9338 22.9498L26.9898 23.7728L29.6129 26.4059Z" fill="#F58C25"/>
<path id="Vector_2" d="M10.3197 16.3821L4.67516 16.3497L3.32988 14.9299L4.17879 14.3669L2.65788 13.5538L3.9586 13.2073L2.17297 12.1028L3.24206 11.6474L3.50679 9.99998L6.47225 4.56103L10.4851 1.10227L13.947 5.12269L16.7253 9.96621L10.3197 16.3809V16.3821Z" fill="#81491F"/>
<path id="Vector_3" d="M1.20312 24.9435H10.9369L13.5944 28.4323C13.5944 28.4323 6.98003 30.3937 3.66076 31.3907C2.81185 29.1691 2.00621 27.0563 1.20312 24.9435Z" fill="#E48027"/>
<path id="Vector_4" d="M27.3755 10.2167L28.1581 11.1049L27.5855 11.7779L28.3784 12.3408L27.8056 13.0888L27.9379 14.2697L26.9567 15.418L21.3885 9.71886L30.2633 2.49112L27.3755 10.2167Z" fill="#81491F"/>
<path id="Vector_5" d="M27.3653 27.1538L27.3984 29.3103L24.2344 30.8815L13.5842 28.4422C13.5066 28.4972 13.5842 28.4422 13.5842 28.4422C18.049 28.0207 27.3653 27.1538 27.3653 27.1538Z" fill="#D9C6B7"/>
<path id="Vector_6" d="M30.2631 2.49112L21.3884 9.71887L20.2532 5.10302L30.2631 2.49112Z" fill="#E48027"/>
<path id="Vector_7" d="M21.3885 9.7184L26.9452 15.4176L26.7136 18.376L23.892 18.571L21.3885 9.7184Z" fill="#E57F24"/>
<path id="Vector_8" d="M13.5841 28.4308L24.233 30.87L27.397 29.2977L29.5695 29.1138L27.915 31.2379L23.4286 31.6382L13.5841 28.4308Z" fill="#C7B7AB"/>
<path id="Vector_9" d="M13.5828 28.4324L10.9368 24.9423L16.1956 23.5451L13.5828 28.4324Z" fill="#D76F21"/>
<path id="Vector_10" d="M29.5697 29.1141C28.8417 29.1791 28.1252 29.2442 27.3972 29.2993L27.364 27.1426L27.7498 26.85L29.613 26.4059C29.613 26.4059 30.2417 26.8386 30.7813 27.1426C30.3524 27.8357 29.9541 28.4748 29.5697 29.1141Z" fill="#2A2626"/>
<path id="Vector_11" d="M23.8906 18.5716L26.7136 18.3764L26.3279 20.219L25.2588 18.9619L25.0272 20.7607L26.9999 23.7729L24.5754 20.9558L23.8919 18.5716H23.8906Z" fill="#D66F21"/>
<path id="Vector_12" d="M10.3196 16.382L16.7252 9.96733L20.2532 18.5711L11.6878 18.8639L10.3196 16.382Z" fill="#E47E25"/>
<path id="Vector_13" d="M13.5841 28.4324L16.197 23.5451L27.3652 27.154L13.5841 28.4324Z" fill="#E47F26"/>
<path id="Vector_14" d="M11.6879 18.864L20.2532 18.5714L19.6361 21.3459L18.1927 19.1568L15.613 20.6304L11.6879 18.864Z" fill="#D66F21"/>
<path id="Vector_15" d="M19.636 21.3459L20.2532 18.5714L21.2561 21.3459L27.3652 27.1539C27.3652 27.1539 21.3999 22.6781 19.636 21.3459Z" fill="#E47F25"/>
<path id="Vector_16" d="M19.6361 21.3457L15.6118 20.6302L18.1916 19.1566L19.6361 21.3457Z" fill="#32404E"/>
<path id="Vector_17" d="M15.613 20.6301L16.1971 23.5448L11.6879 18.8651L15.613 20.6315V20.6301Z" fill="#E57F25"/>
<path id="Vector_18" d="M25.0273 20.7605L25.2589 18.9616L26.328 20.2176L25.0273 20.7605Z" fill="#38424D"/>
<path id="Vector_19" d="M26.3281 20.219L26.7137 18.3764L27.121 20.3379L26.9454 22.9498L26.3281 20.219Z" fill="#E57F24"/>
</g>
</svg>
