<svg width="19" height="19" viewBox="0 0 19 19" fill="none" xmlns="http://www.w3.org/2000/svg">
<g id="Gallery Add">
<path id="icon" d="M10.2916 1.5835H7.12498C3.16665 1.5835 1.58331 3.16683 1.58331 7.12516V11.8752C1.58331 15.8335 3.16665 17.4168 7.12498 17.4168H11.875C15.8333 17.4168 17.4166 15.8335 17.4166 11.8752V7.91683M12.4687 3.9585H16.8229M14.6458 6.13558V1.78141M2.11373 15.0022L6.01665 12.3818C6.64206 11.9622 7.54456 12.0097 8.10665 12.4927L8.3679 12.7222C8.9854 13.2527 9.9829 13.2527 10.6004 12.7222L13.8937 9.896C14.5112 9.36558 15.5087 9.36558 16.1262 9.896L17.4166 11.0043M8.70831 6.3335C8.70831 7.20795 7.99943 7.91683 7.12498 7.91683C6.25053 7.91683 5.54165 7.20795 5.54165 6.3335C5.54165 5.45905 6.25053 4.75016 7.12498 4.75016C7.99943 4.75016 8.70831 5.45905 8.70831 6.3335Z" stroke="white" stroke-width="1.5" stroke-linecap="round" stroke-linejoin="round"/>
</g>
</svg>
